<svg xmlns="http://www.w3.org/2000/svg" width="340" height="200" viewBox="0 0 340 200" font-family="'Segoe UI', Ubuntu, Sans-Serif">
  <rect x="0.5" y="0.5" width="339" height="199" rx="6" fill="#000000" stroke="#000000" stroke-opacity="0.00"/>
  <text x="20" y="30" font-size="15" font-weight="600" fill="#9745f5">Commits by Weekday (last year)</text>
  <line x1="35" y1="45" x2="35" y2="155" stroke="#9f4bff"/>
  <line x1="31" y1="155" x2="35" y2="155" stroke="#9f4bff"/>
  <text x="29" y="158" font-size="10" fill="#9f4bff" text-anchor="end">0</text>
  <line x1="31" y1="133" x2="35" y2="133" stroke="#9f4bff"/>
  <text x="29" y="136" font-size="10" fill="#9f4bff" text-anchor="end">100</text>
  <line x1="31" y1="111" x2="35" y2="111" stroke="#9f4bff"/>
  <text x="29" y="114" font-size="10" fill="#9f4bff" text-anchor="end">200</text>
  <line x1="31" y1="89" x2="35" y2="89" stroke="#9f4bff"/>
  <text x="29" y="92" font-size="10" fill="#9f4bff" text-anchor="end">300</text>
  <line x1="31" y1="67" x2="35" y2="67" stroke="#9f4bff"/>
  <text x="29" y="70" font-size="10" fill="#9f4bff" text-anchor="end">400</text>
  <line x1="31" y1="45" x2="35" y2="45" stroke="#9f4bff"/>
  <text x="29" y="48" font-size="10" fill="#9f4bff" text-anchor="end">500</text>
  <line x1="35" y1="155" x2="325" y2="155" stroke="#9f4bff"/>
  <rect x="35.00" y="96.26" width="36.29" height="58.74" rx="2" fill="#532586"><title>Mon — 267 commits</title></rect>
  <text x="53.14" y="169" font-size="10" fill="#9f4bff" text-anchor="middle">Mon</text>
  <rect x="77.29" y="83.28" width="36.29" height="71.72" rx="2" fill="#532586"><title>Tue — 326 commits</title></rect>
  <text x="95.43" y="169" font-size="10" fill="#9f4bff" text-anchor="middle">Tue</text>
  <rect x="119.57" y="90.76" width="36.29" height="64.24" rx="2" fill="#532586"><title>Wed — 292 commits</title></rect>
  <text x="137.71" y="169" font-size="10" fill="#9f4bff" text-anchor="middle">Wed</text>
  <rect x="161.86" y="91.20" width="36.29" height="63.80" rx="2" fill="#532586"><title>Thu — 290 commits</title></rect>
  <text x="180.00" y="169" font-size="10" fill="#9f4bff" text-anchor="middle">Thu</text>
  <rect x="204.14" y="101.76" width="36.29" height="53.24" rx="2" fill="#532586"><title>Fri — 242 commits</title></rect>
  <text x="222.29" y="169" font-size="10" fill="#9f4bff" text-anchor="middle">Fri</text>
  <rect x="246.43" y="64.80" width="36.29" height="90.20" rx="2" fill="#9745f5"><title>Sat — 410 commits</title></rect>
  <text x="264.57" y="169" font-size="10" fill="#9f4bff" text-anchor="middle">Sat</text>
  <rect x="288.71" y="88.78" width="36.29" height="66.22" rx="2" fill="#532586"><title>Sun — 301 commits</title></rect>
  <text x="306.86" y="169" font-size="10" fill="#9f4bff" text-anchor="middle">Sun</text>
</svg>