<svg xmlns="http://www.w3.org/2000/svg" width="340" height="200" viewBox="0 0 340 200" font-family="'Segoe UI', Ubuntu, Sans-Serif">
  <rect x="0.5" y="0.5" width="339" height="199" rx="6" fill="#ffffff" stroke="#000000" stroke-opacity="0.00"/>
  <text x="20" y="30" font-size="15" font-weight="600" fill="#ff8f1c">Most Commit Language (all time)</text>
  <rect x="20" y="47" width="10" height="10" fill="#f1e05a" stroke="#ffffff" stroke-width="1"/>
  <text x="36" y="55" font-size="11" fill="#509e2f">JavaScript 36.25%</text>
  <rect x="20" y="67" width="10" height="10" fill="#b07219" stroke="#ffffff" stroke-width="1"/>
  <text x="36" y="75" font-size="11" fill="#509e2f">Java 16.52%</text>
  <rect x="20" y="87" width="10" height="10" fill="#e34c26" stroke="#ffffff" stroke-width="1"/>
  <text x="36" y="95" font-size="11" fill="#509e2f">HTML 14.99%</text>
  <rect x="20" y="107" width="10" height="10" fill="#00ADD8" stroke="#ffffff" stroke-width="1"/>
  <text x="36" y="115" font-size="11" fill="#509e2f">Go 7.99%</text>
  <rect x="20" y="127" width="10" height="10" fill="#3572A5" stroke="#ffffff" stroke-width="1"/>
  <text x="36" y="135" font-size="11" fill="#509e2f">Python 4.26%</text>
  <rect x="20" y="147" width="10" height="10" fill="#f34b7d" stroke="#ffffff" stroke-width="1"/>
  <text x="36" y="155" font-size="11" fill="#509e2f">C++ 4.14%</text>
  <rect x="20" y="167" width="10" height="10" fill="#ff8f1c" stroke="#ffffff" stroke-width="1"/>
  <text x="36" y="175" font-size="11" fill="#509e2f">Other 15.84%</text>
  <path d="M250.00,55.00 A55.00,55.00 0 0 1 291.82,145.73 L272.81,129.49 A30.00,30.00 0 0 0 250.00,80.00 Z" fill="#f1e05a" stroke="#ffffff" stroke-width="1.5"/>
  <path d="M291.82,145.73 A55.00,55.00 0 0 1 240.45,164.16 L244.79,139.54 A30.00,30.00 0 0 0 272.81,129.49 Z" fill="#b07219" stroke="#ffffff" stroke-width="1.5"/>
  <path d="M240.45,164.16 A55.00,55.00 0 0 1 200.58,134.14 L223.04,123.17 A30.00,30.00 0 0 0 244.79,139.54 Z" fill="#e34c26" stroke="#ffffff" stroke-width="1.5"/>
  <path d="M200.58,134.14 A55.00,55.00 0 0 1 195.06,107.37 L220.03,108.56 A30.00,30.00 0 0 0 223.04,123.17 Z" fill="#00ADD8" stroke="#ffffff" stroke-width="1.5"/>
  <path d="M195.06,107.37 A55.00,55.00 0 0 1 197.71,92.94 L221.48,100.69 A30.00,30.00 0 0 0 220.03,108.56 Z" fill="#3572A5" stroke="#ffffff" stroke-width="1.5"/>
  <path d="M197.71,92.94 A55.00,55.00 0 0 1 203.87,80.05 L224.84,93.67 A30.00,30.00 0 0 0 221.48,100.69 Z" fill="#f34b7d" stroke="#ffffff" stroke-width="1.5"/>
  <path d="M203.87,80.05 A55.00,55.00 0 0 1 250.00,55.00 L250.00,80.00 A30.00,30.00 0 0 0 224.84,93.67 Z" fill="#ff8f1c" stroke="#ffffff" stroke-width="1.5"/>
</svg>