<svg xmlns="http://www.w3.org/2000/svg" width="340" height="200" viewBox="0 0 340 200" font-family="'Segoe UI', Ubuntu, Sans-Serif">
  <rect x="0.5" y="0.5" width="339" height="199" rx="6" fill="#ffffff" stroke="#000000" stroke-opacity="0.00"/>
  <text x="20" y="30" font-size="15" font-weight="600" fill="#ff8f1c">Commits by Weekday (last year)</text>
  <line x1="35" y1="45" x2="35" y2="155" stroke="#250e62"/>
  <line x1="31" y1="155" x2="35" y2="155" stroke="#250e62"/>
  <text x="29" y="158" font-size="10" fill="#250e62" text-anchor="end">0</text>
  <line x1="31" y1="128" x2="35" y2="128" stroke="#250e62"/>
  <text x="29" y="131" font-size="10" fill="#250e62" text-anchor="end">100</text>
  <line x1="31" y1="100" x2="35" y2="100" stroke="#250e62"/>
  <text x="29" y="103" font-size="10" fill="#250e62" text-anchor="end">200</text>
  <line x1="31" y1="73" x2="35" y2="73" stroke="#250e62"/>
  <text x="29" y="76" font-size="10" fill="#250e62" text-anchor="end">300</text>
  <line x1="31" y1="45" x2="35" y2="45" stroke="#250e62"/>
  <text x="29" y="48" font-size="10" fill="#250e62" text-anchor="end">400</text>
  <line x1="35" y1="155" x2="325" y2="155" stroke="#250e62"/>
  <rect x="35.00" y="77.45" width="36.29" height="77.55" rx="2" fill="#ffc182"><title>Mon — 282 commits</title></rect>
  <text x="53.14" y="169" font-size="10" fill="#250e62" text-anchor="middle">Mon</text>
  <rect x="77.29" y="70.30" width="36.29" height="84.70" rx="2" fill="#ffc182"><title>Tue — 308 commits</title></rect>
  <text x="95.43" y="169" font-size="10" fill="#250e62" text-anchor="middle">Tue</text>
  <rect x="119.57" y="75.80" width="36.29" height="79.20" rx="2" fill="#ffc182"><title>Wed — 288 commits</title></rect>
  <text x="137.71" y="169" font-size="10" fill="#250e62" text-anchor="middle">Wed</text>
  <rect x="161.86" y="82.12" width="36.29" height="72.88" rx="2" fill="#ffc182"><title>Thu — 265 commits</title></rect>
  <text x="180.00" y="169" font-size="10" fill="#250e62" text-anchor="middle">Thu</text>
  <rect x="204.14" y="89.83" width="36.29" height="65.17" rx="2" fill="#ffc182"><title>Fri — 237 commits</title></rect>
  <text x="222.29" y="169" font-size="10" fill="#250e62" text-anchor="middle">Fri</text>
  <rect x="246.43" y="45.83" width="36.29" height="109.17" rx="2" fill="#ff8f1c"><title>Sat — 397 commits</title></rect>
  <text x="264.57" y="169" font-size="10" fill="#250e62" text-anchor="middle">Sat</text>
  <rect x="288.71" y="78.28" width="36.29" height="76.72" rx="2" fill="#ffc182"><title>Sun — 279 commits</title></rect>
  <text x="306.86" y="169" font-size="10" fill="#250e62" text-anchor="middle">Sun</text>
</svg>