<svg xmlns="http://www.w3.org/2000/svg" width="340" height="200" viewBox="0 0 340 200" font-family="'Segoe UI', Ubuntu, Sans-Serif">
  <rect x="0.5" y="0.5" width="339" height="199" rx="6" fill="#000000" stroke="#000000" stroke-opacity="0.00"/>
  <text x="20" y="30" font-size="15" font-weight="600" fill="#ffb000">Most Commit Language (last year)</text>
  <rect x="20" y="47" width="10" height="10" fill="#f1e05a" stroke="#000000" stroke-width="1"/>
  <text x="36" y="55" font-size="11" fill="#ffffff">JavaScript 44.76%</text>
  <rect x="20" y="67" width="10" height="10" fill="#00ADD8" stroke="#000000" stroke-width="1"/>
  <text x="36" y="75" font-size="11" fill="#ffffff">Go 13.24%</text>
  <rect x="20" y="87" width="10" height="10" fill="#b07219" stroke="#000000" stroke-width="1"/>
  <text x="36" y="95" font-size="11" fill="#ffffff">Java 10.70%</text>
  <rect x="20" y="107" width="10" height="10" fill="#e34c26" stroke="#000000" stroke-width="1"/>
  <text x="36" y="115" font-size="11" fill="#ffffff">HTML 9.70%</text>
  <rect x="20" y="127" width="10" height="10" fill="#ffb000" stroke="#000000" stroke-width="1"/>
  <text x="36" y="135" font-size="11" fill="#ffffff">Other 21.60%</text>
  <path d="M250.00,55.00 A55.00,55.00 0 0 1 267.78,162.05 L259.70,138.39 A30.00,30.00 0 0 0 250.00,80.00 Z" fill="#f1e05a" stroke="#000000" stroke-width="1.5"/>
  <path d="M267.78,162.05 A55.00,55.00 0 0 1 223.50,158.19 L235.54,136.29 A30.00,30.00 0 0 0 259.70,138.39 Z" fill="#00ADD8" stroke="#000000" stroke-width="1.5"/>
  <path d="M223.50,158.19 A55.00,55.00 0 0 1 199.25,131.20 L222.32,121.57 A30.00,30.00 0 0 0 235.54,136.29 Z" fill="#b07219" stroke="#000000" stroke-width="1.5"/>
  <path d="M199.25,131.20 A55.00,55.00 0 0 1 196.25,98.34 L220.68,103.64 A30.00,30.00 0 0 0 222.32,121.57 Z" fill="#e34c26" stroke="#000000" stroke-width="1.5"/>
  <path d="M196.25,98.34 A55.00,55.00 0 0 1 250.00,55.00 L250.00,80.00 A30.00,30.00 0 0 0 220.68,103.64 Z" fill="#ffb000" stroke="#000000" stroke-width="1.5"/>
</svg>