<svg xmlns="http://www.w3.org/2000/svg" width="340" height="200" viewBox="0 0 340 200" font-family="'Segoe UI', Ubuntu, Sans-Serif">
  <rect x="0.5" y="0.5" width="339" height="199" rx="6" fill="#011627" stroke="#000000" stroke-opacity="0.00"/>
  <text x="20" y="30" font-size="15" font-weight="600" fill="#c792ea">Most Commit Language (last year)</text>
  <rect x="20" y="47" width="10" height="10" fill="#f1e05a" stroke="#011627" stroke-width="1"/>
  <text x="36" y="55" font-size="11" fill="#7fdbca">JavaScript 44.83%</text>
  <rect x="20" y="67" width="10" height="10" fill="#00ADD8" stroke="#011627" stroke-width="1"/>
  <text x="36" y="75" font-size="11" fill="#7fdbca">Go 13.00%</text>
  <rect x="20" y="87" width="10" height="10" fill="#b07219" stroke="#011627" stroke-width="1"/>
  <text x="36" y="95" font-size="11" fill="#7fdbca">Java 10.76%</text>
  <rect x="20" y="107" width="10" height="10" fill="#e34c26" stroke="#011627" stroke-width="1"/>
  <text x="36" y="115" font-size="11" fill="#7fdbca">HTML 9.75%</text>
  <rect x="20" y="127" width="10" height="10" fill="#c792ea" stroke="#011627" stroke-width="1"/>
  <text x="36" y="135" font-size="11" fill="#7fdbca">Other 21.67%</text>
  <path d="M250.00,55.00 A55.00,55.00 0 0 1 267.56,162.12 L259.58,138.43 A30.00,30.00 0 0 0 250.00,80.00 Z" fill="#f1e05a" stroke="#011627" stroke-width="1.5"/>
  <path d="M267.56,162.12 A55.00,55.00 0 0 1 224.04,158.49 L235.84,136.45 A30.00,30.00 0 0 0 259.58,138.43 Z" fill="#00ADD8" stroke="#011627" stroke-width="1.5"/>
  <path d="M224.04,158.49 A55.00,55.00 0 0 1 199.41,131.57 L222.40,121.77 A30.00,30.00 0 0 0 235.84,136.45 Z" fill="#b07219" stroke="#011627" stroke-width="1.5"/>
  <path d="M199.41,131.57 A55.00,55.00 0 0 1 196.20,98.57 L220.65,103.77 A30.00,30.00 0 0 0 222.40,121.77 Z" fill="#e34c26" stroke="#011627" stroke-width="1.5"/>
  <path d="M196.20,98.57 A55.00,55.00 0 0 1 250.00,55.00 L250.00,80.00 A30.00,30.00 0 0 0 220.65,103.77 Z" fill="#c792ea" stroke="#011627" stroke-width="1.5"/>
</svg>