<svg xmlns="http://www.w3.org/2000/svg" width="340" height="200" viewBox="0 0 340 200" font-family="'Segoe UI', Ubuntu, Sans-Serif">
  <rect x="0.5" y="0.5" width="339" height="199" rx="6" fill="#222436" stroke="#222436" stroke-opacity="1.00"/>
  <text x="20" y="30" font-size="15" font-weight="600" fill="#ff757f">Most Commit Language (last year)</text>
  <rect x="20" y="47" width="10" height="10" fill="#f1e05a" stroke="#222436" stroke-width="1"/>
  <text x="36" y="55" font-size="11" fill="#f8f8f8">JavaScript 46.03%</text>
  <rect x="20" y="67" width="10" height="10" fill="#00ADD8" stroke="#222436" stroke-width="1"/>
  <text x="36" y="75" font-size="11" fill="#f8f8f8">Go 14.29%</text>
  <rect x="20" y="87" width="10" height="10" fill="#b07219" stroke="#222436" stroke-width="1"/>
  <text x="36" y="95" font-size="11" fill="#f8f8f8">Java 8.54%</text>
  <rect x="20" y="107" width="10" height="10" fill="#e34c26" stroke="#222436" stroke-width="1"/>
  <text x="36" y="115" font-size="11" fill="#f8f8f8">HTML 6.35%</text>
  <rect x="20" y="127" width="10" height="10" fill="#ff3e00" stroke="#222436" stroke-width="1"/>
  <text x="36" y="135" font-size="11" fill="#f8f8f8">Svelte 4.81%</text>
  <rect x="20" y="147" width="10" height="10" fill="#3178c6" stroke="#222436" stroke-width="1"/>
  <text x="36" y="155" font-size="11" fill="#f8f8f8">TypeScript 4.19%</text>
  <rect x="20" y="167" width="10" height="10" fill="#ff757f" stroke="#222436" stroke-width="1"/>
  <text x="36" y="175" font-size="11" fill="#f8f8f8">Other 15.79%</text>
  <path d="M250.00,55.00 A55.00,55.00 0 0 1 263.58,163.30 L257.41,139.07 A30.00,30.00 0 0 0 250.00,80.00 Z" fill="#f1e05a" stroke="#222436" stroke-width="1.5"/>
  <path d="M263.58,163.30 A55.00,55.00 0 0 1 216.78,153.83 L231.88,133.91 A30.00,30.00 0 0 0 257.41,139.07 Z" fill="#00ADD8" stroke="#222436" stroke-width="1.5"/>
  <path d="M216.78,153.83 A55.00,55.00 0 0 1 199.04,130.69 L222.20,121.28 A30.00,30.00 0 0 0 231.88,133.91 Z" fill="#b07219" stroke="#222436" stroke-width="1.5"/>
  <path d="M199.04,130.69 A55.00,55.00 0 0 1 195.01,109.25 L220.00,109.59 A30.00,30.00 0 0 0 222.20,121.28 Z" fill="#e34c26" stroke="#222436" stroke-width="1.5"/>
  <path d="M195.01,109.25 A55.00,55.00 0 0 1 197.72,92.93 L221.48,100.69 A30.00,30.00 0 0 0 220.00,109.59 Z" fill="#ff3e00" stroke="#222436" stroke-width="1.5"/>
  <path d="M197.72,92.93 A55.00,55.00 0 0 1 203.96,79.91 L224.89,93.58 A30.00,30.00 0 0 0 221.48,100.69 Z" fill="#3178c6" stroke="#222436" stroke-width="1.5"/>
  <path d="M203.96,79.91 A55.00,55.00 0 0 1 250.00,55.00 L250.00,80.00 A30.00,30.00 0 0 0 224.89,93.58 Z" fill="#ff757f" stroke="#222436" stroke-width="1.5"/>
</svg>