<svg xmlns="http://www.w3.org/2000/svg" width="340" height="200" viewBox="0 0 340 200" font-family="'Segoe UI', Ubuntu, Sans-Serif">
  <rect x="0.5" y="0.5" width="339" height="199" rx="6" fill="#ffffff" stroke="#000000" stroke-opacity="0.00"/>
  <text x="20" y="30" font-size="15" font-weight="600" fill="#24292e">Most Commit Language (last year)</text>
  <rect x="20" y="47" width="10" height="10" fill="#f1e05a" stroke="#ffffff" stroke-width="1"/>
  <text x="36" y="55" font-size="11" fill="#24292e">JavaScript 45.53%</text>
  <rect x="20" y="67" width="10" height="10" fill="#00ADD8" stroke="#ffffff" stroke-width="1"/>
  <text x="36" y="75" font-size="11" fill="#24292e">Go 14.43%</text>
  <rect x="20" y="87" width="10" height="10" fill="#b07219" stroke="#ffffff" stroke-width="1"/>
  <text x="36" y="95" font-size="11" fill="#24292e">Java 10.30%</text>
  <rect x="20" y="107" width="10" height="10" fill="#e34c26" stroke="#ffffff" stroke-width="1"/>
  <text x="36" y="115" font-size="11" fill="#24292e">HTML 9.33%</text>
  <rect x="20" y="127" width="10" height="10" fill="#3178c6" stroke="#ffffff" stroke-width="1"/>
  <text x="36" y="135" font-size="11" fill="#24292e">TypeScript 3.71%</text>
  <rect x="20" y="147" width="10" height="10" fill="#384d54" stroke="#ffffff" stroke-width="1"/>
  <text x="36" y="155" font-size="11" fill="#24292e">Dockerfile 3.44%</text>
  <rect x="20" y="167" width="10" height="10" fill="#24292e" stroke="#ffffff" stroke-width="1"/>
  <text x="36" y="175" font-size="11" fill="#24292e">Other 13.26%</text>
  <path d="M250.00,55.00 A55.00,55.00 0 0 1 265.24,162.85 L258.31,138.82 A30.00,30.00 0 0 0 250.00,80.00 Z" fill="#f1e05a" stroke="#ffffff" stroke-width="1.5"/>
  <path d="M265.24,162.85 A55.00,55.00 0 0 1 217.79,154.58 L232.43,134.32 A30.00,30.00 0 0 0 258.31,138.82 Z" fill="#00ADD8" stroke="#ffffff" stroke-width="1.5"/>
  <path d="M217.79,154.58 A55.00,55.00 0 0 1 197.42,126.13 L221.32,118.80 A30.00,30.00 0 0 0 232.43,134.32 Z" fill="#b07219" stroke="#ffffff" stroke-width="1.5"/>
  <path d="M197.42,126.13 A55.00,55.00 0 0 1 197.28,94.34 L221.24,101.46 A30.00,30.00 0 0 0 221.32,118.80 Z" fill="#e34c26" stroke="#ffffff" stroke-width="1.5"/>
  <path d="M197.28,94.34 A55.00,55.00 0 0 1 202.32,82.59 L223.99,95.05 A30.00,30.00 0 0 0 221.24,101.46 Z" fill="#3178c6" stroke="#ffffff" stroke-width="1.5"/>
  <path d="M202.32,82.59 A55.00,55.00 0 0 1 209.30,73.01 L227.80,89.82 A30.00,30.00 0 0 0 223.99,95.05 Z" fill="#384d54" stroke="#ffffff" stroke-width="1.5"/>
  <path d="M209.30,73.01 A55.00,55.00 0 0 1 250.00,55.00 L250.00,80.00 A30.00,30.00 0 0 0 227.80,89.82 Z" fill="#24292e" stroke="#ffffff" stroke-width="1.5"/>
</svg>