<svg xmlns="http://www.w3.org/2000/svg" width="340" height="200" viewBox="0 0 340 200" font-family="'Segoe UI', Ubuntu, Sans-Serif">
  <rect x="0.5" y="0.5" width="339" height="199" rx="6" fill="#141439" stroke="#000000" stroke-opacity="0.00"/>
  <text x="20" y="30" font-size="15" font-weight="600" fill="#ffcc00">Most Commit Language (all time)</text>
  <rect x="20" y="47" width="10" height="10" fill="#f1e05a" stroke="#141439" stroke-width="1"/>
  <text x="36" y="55" font-size="11" fill="#8080ff">JavaScript 35.76%</text>
  <rect x="20" y="67" width="10" height="10" fill="#b07219" stroke="#141439" stroke-width="1"/>
  <text x="36" y="75" font-size="11" fill="#8080ff">Java 16.10%</text>
  <rect x="20" y="87" width="10" height="10" fill="#e34c26" stroke="#141439" stroke-width="1"/>
  <text x="36" y="95" font-size="11" fill="#8080ff">HTML 14.94%</text>
  <rect x="20" y="107" width="10" height="10" fill="#00ADD8" stroke="#141439" stroke-width="1"/>
  <text x="36" y="115" font-size="11" fill="#8080ff">Go 8.54%</text>
  <rect x="20" y="127" width="10" height="10" fill="#3572A5" stroke="#141439" stroke-width="1"/>
  <text x="36" y="135" font-size="11" fill="#8080ff">Python 4.15%</text>
  <rect x="20" y="147" width="10" height="10" fill="#f34b7d" stroke="#141439" stroke-width="1"/>
  <text x="36" y="155" font-size="11" fill="#8080ff">C++ 4.04%</text>
  <rect x="20" y="167" width="10" height="10" fill="#ffcc00" stroke="#141439" stroke-width="1"/>
  <text x="36" y="175" font-size="11" fill="#8080ff">Other 16.47%</text>
  <path d="M250.00,55.00 A55.00,55.00 0 0 1 292.90,144.41 L273.40,128.77 A30.00,30.00 0 0 0 250.00,80.00 Z" fill="#f1e05a" stroke="#141439" stroke-width="1.5"/>
  <path d="M292.90,144.41 A55.00,55.00 0 0 1 243.57,164.62 L246.50,139.79 A30.00,30.00 0 0 0 273.40,128.77 Z" fill="#b07219" stroke="#141439" stroke-width="1.5"/>
  <path d="M243.57,164.62 A55.00,55.00 0 0 1 202.14,137.09 L223.89,124.78 A30.00,30.00 0 0 0 246.50,139.79 Z" fill="#e34c26" stroke="#141439" stroke-width="1.5"/>
  <path d="M202.14,137.09 A55.00,55.00 0 0 1 195.01,108.81 L220.01,109.35 A30.00,30.00 0 0 0 223.89,124.78 Z" fill="#00ADD8" stroke="#141439" stroke-width="1.5"/>
  <path d="M195.01,108.81 A55.00,55.00 0 0 1 197.18,94.67 L221.19,101.64 A30.00,30.00 0 0 0 220.01,109.35 Z" fill="#3572A5" stroke="#141439" stroke-width="1.5"/>
  <path d="M197.18,94.67 A55.00,55.00 0 0 1 202.72,81.90 L224.21,94.67 A30.00,30.00 0 0 0 221.19,101.64 Z" fill="#f34b7d" stroke="#141439" stroke-width="1.5"/>
  <path d="M202.72,81.90 A55.00,55.00 0 0 1 250.00,55.00 L250.00,80.00 A30.00,30.00 0 0 0 224.21,94.67 Z" fill="#ffcc00" stroke="#141439" stroke-width="1.5"/>
</svg>