<svg xmlns="http://www.w3.org/2000/svg" width="340" height="200" viewBox="0 0 340 200" font-family="'Segoe UI', Ubuntu, Sans-Serif">
  <rect x="0.5" y="0.5" width="339" height="199" rx="6" fill="#000000" stroke="#000000" stroke-opacity="0.00"/>
  <text x="20" y="30" font-size="15" font-weight="600" fill="#e7f216">Most Commit Language (all time)</text>
  <rect x="20" y="47" width="10" height="10" fill="#f1e05a" stroke="#000000" stroke-width="1"/>
  <text x="36" y="55" font-size="11" fill="#ffffff">JavaScript 31.57%</text>
  <rect x="20" y="67" width="10" height="10" fill="#b07219" stroke="#000000" stroke-width="1"/>
  <text x="36" y="75" font-size="11" fill="#ffffff">Java 18.81%</text>
  <rect x="20" y="87" width="10" height="10" fill="#e34c26" stroke="#000000" stroke-width="1"/>
  <text x="36" y="95" font-size="11" fill="#ffffff">HTML 18.77%</text>
  <rect x="20" y="107" width="10" height="10" fill="#00ADD8" stroke="#000000" stroke-width="1"/>
  <text x="36" y="115" font-size="11" fill="#ffffff">Go 7.26%</text>
  <rect x="20" y="127" width="10" height="10" fill="#e7f216" stroke="#000000" stroke-width="1"/>
  <text x="36" y="135" font-size="11" fill="#ffffff">Other 23.59%</text>
  <path d="M250.00,55.00 A55.00,55.00 0 0 1 300.37,132.08 L277.48,122.04 A30.00,30.00 0 0 0 250.00,80.00 Z" fill="#f1e05a" stroke="#000000" stroke-width="1.5"/>
  <path d="M300.37,132.08 A55.00,55.00 0 0 1 248.69,164.98 L249.28,139.99 A30.00,30.00 0 0 0 277.48,122.04 Z" fill="#b07219" stroke="#000000" stroke-width="1.5"/>
  <path d="M248.69,164.98 A55.00,55.00 0 0 1 198.67,129.76 L222.00,120.78 A30.00,30.00 0 0 0 249.28,139.99 Z" fill="#e34c26" stroke="#000000" stroke-width="1.5"/>
  <path d="M198.67,129.76 A55.00,55.00 0 0 1 195.22,105.12 L220.12,107.34 A30.00,30.00 0 0 0 222.00,120.78 Z" fill="#00ADD8" stroke="#000000" stroke-width="1.5"/>
  <path d="M195.22,105.12 A55.00,55.00 0 0 1 250.00,55.00 L250.00,80.00 A30.00,30.00 0 0 0 220.12,107.34 Z" fill="#e7f216" stroke="#000000" stroke-width="1.5"/>
</svg>