<svg xmlns="http://www.w3.org/2000/svg" width="340" height="200" viewBox="0 0 340 200" font-family="'Segoe UI', Ubuntu, Sans-Serif">
  <rect x="0.5" y="0.5" width="339" height="199" rx="6" fill="#3f3f3f" stroke="#3f3f3f" stroke-opacity="1.00"/>
  <text x="20" y="30" font-size="15" font-weight="600" fill="#f0dfaf">Most Commit Language (last year)</text>
  <rect x="20" y="47" width="10" height="10" fill="#f1e05a" stroke="#3f3f3f" stroke-width="1"/>
  <text x="36" y="55" font-size="11" fill="#dcdccc">JavaScript 45.69%</text>
  <rect x="20" y="67" width="10" height="10" fill="#00ADD8" stroke="#3f3f3f" stroke-width="1"/>
  <text x="36" y="75" font-size="11" fill="#dcdccc">Go 14.44%</text>
  <rect x="20" y="87" width="10" height="10" fill="#b07219" stroke="#3f3f3f" stroke-width="1"/>
  <text x="36" y="95" font-size="11" fill="#dcdccc">Java 8.47%</text>
  <rect x="20" y="107" width="10" height="10" fill="#e34c26" stroke="#3f3f3f" stroke-width="1"/>
  <text x="36" y="115" font-size="11" fill="#dcdccc">HTML 6.53%</text>
  <rect x="20" y="127" width="10" height="10" fill="#ff3e00" stroke="#3f3f3f" stroke-width="1"/>
  <text x="36" y="135" font-size="11" fill="#dcdccc">Svelte 4.77%</text>
  <rect x="20" y="147" width="10" height="10" fill="#3178c6" stroke="#3f3f3f" stroke-width="1"/>
  <text x="36" y="155" font-size="11" fill="#dcdccc">TypeScript 4.25%</text>
  <rect x="20" y="167" width="10" height="10" fill="#7f9f7f" stroke="#3f3f3f" stroke-width="1"/>
  <text x="36" y="175" font-size="11" fill="#dcdccc">Other 15.86%</text>
  <path d="M250.00,55.00 A55.00,55.00 0 0 1 264.71,163.00 L258.03,138.91 A30.00,30.00 0 0 0 250.00,80.00 Z" fill="#f1e05a" stroke="#3f3f3f" stroke-width="1.5"/>
  <path d="M264.71,163.00 A55.00,55.00 0 0 1 217.32,154.24 L232.17,134.13 A30.00,30.00 0 0 0 258.03,138.91 Z" fill="#00ADD8" stroke="#3f3f3f" stroke-width="1.5"/>
  <path d="M217.32,154.24 A55.00,55.00 0 0 1 199.39,131.53 L222.39,121.75 A30.00,30.00 0 0 0 232.17,134.13 Z" fill="#b07219" stroke="#3f3f3f" stroke-width="1.5"/>
  <path d="M199.39,131.53 A55.00,55.00 0 0 1 195.00,109.56 L220.00,109.76 A30.00,30.00 0 0 0 222.39,121.75 Z" fill="#e34c26" stroke="#3f3f3f" stroke-width="1.5"/>
  <path d="M195.00,109.56 A55.00,55.00 0 0 1 197.58,93.36 L221.41,100.92 A30.00,30.00 0 0 0 220.00,109.76 Z" fill="#ff3e00" stroke="#3f3f3f" stroke-width="1.5"/>
  <path d="M197.58,93.36 A55.00,55.00 0 0 1 203.82,80.12 L224.81,93.70 A30.00,30.00 0 0 0 221.41,100.92 Z" fill="#3178c6" stroke="#3f3f3f" stroke-width="1.5"/>
  <path d="M203.82,80.12 A55.00,55.00 0 0 1 250.00,55.00 L250.00,80.00 A30.00,30.00 0 0 0 224.81,93.70 Z" fill="#7f9f7f" stroke="#3f3f3f" stroke-width="1.5"/>
</svg>