<svg xmlns="http://www.w3.org/2000/svg" width="340" height="200" viewBox="0 0 340 200" font-family="'Segoe UI', Ubuntu, Sans-Serif">
  <rect x="0.5" y="0.5" width="339" height="199" rx="6" fill="#191724" stroke="#000000" stroke-opacity="0.00"/>
  <text x="20" y="30" font-size="15" font-weight="600" fill="#9ccfd8">Repos Per Language</text>
  <rect x="20" y="47" width="10" height="10" fill="#f1e05a" stroke="#191724" stroke-width="1"/>
  <text x="36" y="55" font-size="11" fill="#e0def4">JavaScript 22.84%</text>
  <rect x="20" y="67" width="10" height="10" fill="#b07219" stroke="#191724" stroke-width="1"/>
  <text x="36" y="75" font-size="11" fill="#e0def4">Java 17.26%</text>
  <rect x="20" y="87" width="10" height="10" fill="#00ADD8" stroke="#191724" stroke-width="1"/>
  <text x="36" y="95" font-size="11" fill="#e0def4">Go 12.69%</text>
  <rect x="20" y="107" width="10" height="10" fill="#3572A5" stroke="#191724" stroke-width="1"/>
  <text x="36" y="115" font-size="11" fill="#e0def4">Python 10.15%</text>
  <rect x="20" y="127" width="10" height="10" fill="#9ccfd8" stroke="#191724" stroke-width="1"/>
  <text x="36" y="135" font-size="11" fill="#e0def4">Other 37.06%</text>
  <path d="M250.00,55.00 A55.00,55.00 0 0 1 304.50,102.57 L279.72,105.95 A30.00,30.00 0 0 0 250.00,80.00 Z" fill="#f1e05a" stroke="#191724" stroke-width="1.5"/>
  <path d="M304.50,102.57 A55.00,55.00 0 0 1 282.04,154.70 L267.48,134.38 A30.00,30.00 0 0 0 279.72,105.95 Z" fill="#b07219" stroke="#191724" stroke-width="1.5"/>
  <path d="M282.04,154.70 A55.00,55.00 0 0 1 240.40,164.16 L244.76,139.54 A30.00,30.00 0 0 0 267.48,134.38 Z" fill="#00ADD8" stroke="#191724" stroke-width="1.5"/>
  <path d="M240.40,164.16 A55.00,55.00 0 0 1 210.04,147.79 L228.20,130.61 A30.00,30.00 0 0 0 244.76,139.54 Z" fill="#3572A5" stroke="#191724" stroke-width="1.5"/>
  <path d="M210.04,147.79 A55.00,55.00 0 0 1 250.00,55.00 L250.00,80.00 A30.00,30.00 0 0 0 228.20,130.61 Z" fill="#9ccfd8" stroke="#191724" stroke-width="1.5"/>
</svg>