<svg xmlns="http://www.w3.org/2000/svg" width="340" height="200" viewBox="0 0 340 200" font-family="'Segoe UI', Ubuntu, Sans-Serif">
  <rect x="0.5" y="0.5" width="339" height="199" rx="6" fill="#20232a" stroke="#000000" stroke-opacity="0.00"/>
  <text x="20" y="30" font-size="15" font-weight="600" fill="#61dafb">Commits by Weekday (all time, UTC+7.00)</text>
  <line x1="35" y1="45" x2="35" y2="155" stroke="#61dafb"/>
  <line x1="31" y1="155" x2="35" y2="155" stroke="#61dafb"/>
  <text x="29" y="158" font-size="10" fill="#61dafb" text-anchor="end">0</text>
  <line x1="31" y1="137" x2="35" y2="137" stroke="#61dafb"/>
  <text x="29" y="140" font-size="10" fill="#61dafb" text-anchor="end">100</text>
  <line x1="31" y1="119" x2="35" y2="119" stroke="#61dafb"/>
  <text x="29" y="122" font-size="10" fill="#61dafb" text-anchor="end">200</text>
  <line x1="31" y1="100" x2="35" y2="100" stroke="#61dafb"/>
  <text x="29" y="103" font-size="10" fill="#61dafb" text-anchor="end">300</text>
  <line x1="31" y1="82" x2="35" y2="82" stroke="#61dafb"/>
  <text x="29" y="85" font-size="10" fill="#61dafb" text-anchor="end">400</text>
  <line x1="31" y1="64" x2="35" y2="64" stroke="#61dafb"/>
  <text x="29" y="67" font-size="10" fill="#61dafb" text-anchor="end">500</text>
  <line x1="31" y1="45" x2="35" y2="45" stroke="#61dafb"/>
  <text x="29" y="48" font-size="10" fill="#61dafb" text-anchor="end">600</text>
  <line x1="35" y1="155" x2="325" y2="155" stroke="#61dafb"/>
  <rect x="35.00" y="49.95" width="36.29" height="105.05" rx="2" fill="#43879c"><title>Sun — 573 commits</title></rect>
  <text x="53.14" y="169" font-size="10" fill="#61dafb" text-anchor="middle">Sun</text>
  <rect x="77.29" y="89.92" width="36.29" height="65.08" rx="2" fill="#43879c"><title>Mon — 355 commits</title></rect>
  <text x="95.43" y="169" font-size="10" fill="#61dafb" text-anchor="middle">Mon</text>
  <rect x="119.57" y="78.55" width="36.29" height="76.45" rx="2" fill="#43879c"><title>Tue — 417 commits</title></rect>
  <text x="137.71" y="169" font-size="10" fill="#61dafb" text-anchor="middle">Tue</text>
  <rect x="161.86" y="91.93" width="36.29" height="63.07" rx="2" fill="#43879c"><title>Wed — 344 commits</title></rect>
  <text x="180.00" y="169" font-size="10" fill="#61dafb" text-anchor="middle">Wed</text>
  <rect x="204.14" y="84.23" width="36.29" height="70.77" rx="2" fill="#43879c"><title>Thu — 386 commits</title></rect>
  <text x="222.29" y="169" font-size="10" fill="#61dafb" text-anchor="middle">Thu</text>
  <rect x="246.43" y="96.70" width="36.29" height="58.30" rx="2" fill="#43879c"><title>Fri — 318 commits</title></rect>
  <text x="264.57" y="169" font-size="10" fill="#61dafb" text-anchor="middle">Fri</text>
  <rect x="288.71" y="40.42" width="36.29" height="114.58" rx="2" fill="#61dafb"><title>Sat — 625 commits</title></rect>
  <text x="306.86" y="169" font-size="10" fill="#61dafb" text-anchor="middle">Sat</text>
</svg>