<svg xmlns="http://www.w3.org/2000/svg" width="340" height="200" viewBox="0 0 340 200" font-family="'Segoe UI', Ubuntu, Sans-Serif">
  <rect x="0.5" y="0.5" width="339" height="199" rx="6" fill="#f5e1c0" stroke="#000000" stroke-opacity="0.00"/>
  <text x="20" y="30" font-size="15" font-weight="600" fill="#86092c">Commits by Weekday (last year, UTC+7.00)</text>
  <line x1="35" y1="45" x2="35" y2="155" stroke="#86092c"/>
  <line x1="31" y1="155" x2="35" y2="155" stroke="#86092c"/>
  <text x="29" y="158" font-size="10" fill="#86092c" text-anchor="end">0</text>
  <line x1="31" y1="119" x2="35" y2="119" stroke="#86092c"/>
  <text x="29" y="122" font-size="10" fill="#86092c" text-anchor="end">100</text>
  <line x1="31" y1="82" x2="35" y2="82" stroke="#86092c"/>
  <text x="29" y="85" font-size="10" fill="#86092c" text-anchor="end">200</text>
  <line x1="31" y1="45" x2="35" y2="45" stroke="#86092c"/>
  <text x="29" y="48" font-size="10" fill="#86092c" text-anchor="end">300</text>
  <line x1="35" y1="155" x2="325" y2="155" stroke="#86092c"/>
  <rect x="35.00" y="69.93" width="36.29" height="85.07" rx="2" fill="#b76a6e"><title>Sun — 232 commits</title></rect>
  <text x="53.14" y="169" font-size="10" fill="#86092c" text-anchor="middle">Sun</text>
  <rect x="77.29" y="87.53" width="36.29" height="67.47" rx="2" fill="#b76a6e"><title>Mon — 184 commits</title></rect>
  <text x="95.43" y="169" font-size="10" fill="#86092c" text-anchor="middle">Mon</text>
  <rect x="119.57" y="66.27" width="36.29" height="88.73" rx="2" fill="#b76a6e"><title>Tue — 242 commits</title></rect>
  <text x="137.71" y="169" font-size="10" fill="#86092c" text-anchor="middle">Tue</text>
  <rect x="161.86" y="80.20" width="36.29" height="74.80" rx="2" fill="#b76a6e"><title>Wed — 204 commits</title></rect>
  <text x="180.00" y="169" font-size="10" fill="#86092c" text-anchor="middle">Wed</text>
  <rect x="204.14" y="75.43" width="36.29" height="79.57" rx="2" fill="#b76a6e"><title>Thu — 217 commits</title></rect>
  <text x="222.29" y="169" font-size="10" fill="#86092c" text-anchor="middle">Thu</text>
  <rect x="246.43" y="86.80" width="36.29" height="68.20" rx="2" fill="#b76a6e"><title>Fri — 186 commits</title></rect>
  <text x="264.57" y="169" font-size="10" fill="#86092c" text-anchor="middle">Fri</text>
  <rect x="288.71" y="21.53" width="36.29" height="133.47" rx="2" fill="#86092c"><title>Sat — 364 commits</title></rect>
  <text x="306.86" y="169" font-size="10" fill="#86092c" text-anchor="middle">Sat</text>
</svg>