<svg xmlns="http://www.w3.org/2000/svg" width="340" height="200" viewBox="0 0 340 200" font-family="'Segoe UI', Ubuntu, Sans-Serif">
  <rect x="0.5" y="0.5" width="339" height="199" rx="6" fill="#282a36" stroke="#282a36" stroke-opacity="1.00"/>
  <text x="20" y="30" font-size="15" font-weight="600" fill="#ff79c6">Most Commit Language (last year)</text>
  <rect x="20" y="47" width="10" height="10" fill="#f1e05a" stroke="#282a36" stroke-width="1"/>
  <text x="36" y="55" font-size="11" fill="#ffb86c">JavaScript 48.50%</text>
  <rect x="20" y="67" width="10" height="10" fill="#e34c26" stroke="#282a36" stroke-width="1"/>
  <text x="36" y="75" font-size="11" fill="#ffb86c">HTML 11.08%</text>
  <rect x="20" y="87" width="10" height="10" fill="#00ADD8" stroke="#282a36" stroke-width="1"/>
  <text x="36" y="95" font-size="11" fill="#ffb86c">Go 9.87%</text>
  <rect x="20" y="107" width="10" height="10" fill="#b07219" stroke="#282a36" stroke-width="1"/>
  <text x="36" y="115" font-size="11" fill="#ffb86c">Java 7.86%</text>
  <rect x="20" y="127" width="10" height="10" fill="#bd93f9" stroke="#282a36" stroke-width="1"/>
  <text x="36" y="135" font-size="11" fill="#ffb86c">Other 22.69%</text>
  <path d="M250.00,55.00 A55.00,55.00 0 0 1 255.18,164.76 L252.82,139.87 A30.00,30.00 0 0 0 250.00,80.00 Z" fill="#f1e05a" stroke="#282a36" stroke-width="1.5"/>
  <path d="M255.18,164.76 A55.00,55.00 0 0 1 218.85,155.33 L233.01,134.72 A30.00,30.00 0 0 0 252.82,139.87 Z" fill="#e34c26" stroke="#282a36" stroke-width="1.5"/>
  <path d="M218.85,155.33 A55.00,55.00 0 0 1 198.31,128.79 L221.81,120.25 A30.00,30.00 0 0 0 233.01,134.72 Z" fill="#00ADD8" stroke="#282a36" stroke-width="1.5"/>
  <path d="M198.31,128.79 A55.00,55.00 0 0 1 195.58,102.06 L220.31,105.67 A30.00,30.00 0 0 0 221.81,120.25 Z" fill="#b07219" stroke="#282a36" stroke-width="1.5"/>
  <path d="M195.58,102.06 A55.00,55.00 0 0 1 250.00,55.00 L250.00,80.00 A30.00,30.00 0 0 0 220.31,105.67 Z" fill="#bd93f9" stroke="#282a36" stroke-width="1.5"/>
</svg>